# xmcd
#
# Track frame offsets:
#	150
#	15656
#	28227
#	42917
#	55759
#	70587
#	85500
#	98024
#	108204
#	122500
#	136415
#	152565
#	167354
#	180523
#	194999
#	208006
#	221373
#	233367
#	245988
#	258838
#	271804
#
# Disc length: 3796 seconds
#
# Revision: 0
# Processed by: cddbd v1.5.2PL0 Copyright (c) Steve Scherf et al.
# Submitted via: EasyCDDAExtractor 15.2.5.1
#
DISCID=120ed215
DTITLE=Various Artist - Piosenki dla solenizantów
DYEAR=2010
DGENRE=Oldies
TTITLE0=Ada to nie wypada
TTITLE1=Czy tutaj mieszka panna Agnieszka
TTITLE2=Panna Andzia ma wychodne
TTITLE3=Barbara
TTITLE4=Bianka
TTITLE5=Diana
TTITLE6=Ewelina
TTITLE7=Dobosz Grzes
TTITLE8=Hanko
TTITLE9=Irena
TTITLE10=Jadzia
TTITLE11=Jakubek
TTITLE12=Panie Janie
TTITLE13=A czemu Jurku
TTITLE14=Joanna
TTITLE15=Czy umiesz gwizdac Joanno?
TTITLE16=Jola Jola
TTITLE17=Donna Kaska
TTITLE18=Lolita
TTITLE19=Ach Ludwiko
TTITLE20=Maruszka
EXTD=
EXTT0=
EXTT1=
EXTT2=
EXTT3=
EXTT4=
EXTT5=
EXTT6=
EXTT7=
EXTT8=
EXTT9=
EXTT10=
EXTT11=
EXTT12=
EXTT13=
EXTT14=
EXTT15=
EXTT16=
EXTT17=
EXTT18=
EXTT19=
EXTT20=
PLAYORDER=
